<svg width="136" height="87" viewBox="0 0 136 87" fill="none" xmlns="http://www.w3.org/2000/svg">
<path d="M0 51.88V65.0533V72.1467V86.3333L8.10667 84.3067V74.1733V61.1013C8.78222 61.0338 9.45778 61 10.1333 61C12.9031 61 15.2676 60.1218 17.2267 58.3653C19.2533 56.5413 20.2667 54.3796 20.2667 51.88C20.2667 48.84 19.2533 46.5769 17.2267 45.0907C15.2676 43.5369 12.9031 42.76 10.1333 42.76C8.10667 42.76 6.14756 42.5236 4.256 42.0507C2.432 41.5778 1.01333 40.4631 0 38.7067V51.88ZM10.1333 49.8533C10.6738 49.8533 11.1467 50.056 11.552 50.4613C11.9573 50.8667 12.16 51.3396 12.16 51.88C12.16 52.4204 11.9573 52.8933 11.552 53.2987C11.1467 53.704 10.6738 53.9067 10.1333 53.9067C9.59289 53.9067 9.12 53.704 8.71467 53.2987C8.30933 52.8933 8.10667 52.4204 8.10667 51.88C8.10667 51.3396 8.30933 50.8667 8.71467 50.4613C9.12 50.056 9.59289 49.8533 10.1333 49.8533ZM34.4771 61C41.2326 61 44.6104 57.96 44.6104 51.88C44.6104 49.3129 43.5971 47.1511 41.5704 45.3947C39.6113 43.6382 37.2469 42.76 34.4771 42.76C31.7073 42.76 29.3091 43.6382 27.2824 45.3947C25.3233 47.1511 24.3438 49.3129 24.3438 51.88C24.3438 54.92 25.3233 57.2169 27.2824 58.7707C29.3091 60.2569 31.7073 61 34.4771 61ZM34.4771 53.9067C33.9366 53.9067 33.4637 53.704 33.0584 53.2987C32.6531 52.8933 32.4504 52.4204 32.4504 51.88C32.4504 51.3396 32.6531 50.8667 33.0584 50.4613C33.4637 50.056 33.9366 49.8533 34.4771 49.8533C35.0175 49.8533 35.4904 50.056 35.8957 50.4613C36.3011 50.8667 36.5037 51.3396 36.5037 51.88C36.5037 52.4204 36.3011 52.8933 35.8957 53.2987C35.4904 53.704 35.0175 53.9067 34.4771 53.9067ZM58.8208 61C65.5764 61 68.9542 57.96 68.9542 51.88V38.7067V4.25333L60.8475 6.28V42.6587C60.1719 42.7262 59.4964 42.76 58.8208 42.76C56.0511 42.76 53.6528 43.6382 51.6262 45.3947C49.6671 47.1511 48.6875 49.3129 48.6875 51.88C48.6875 54.92 49.6671 57.2169 51.6262 58.7707C53.6528 60.2569 56.0511 61 58.8208 61ZM58.8208 53.9067C58.2804 53.9067 57.8075 53.704 57.4022 53.2987C56.9968 52.8933 56.7942 52.4204 56.7942 51.88C56.7942 51.3396 56.9968 50.8667 57.4022 50.4613C57.8075 50.056 58.2804 49.8533 58.8208 49.8533C59.3613 49.8533 59.8342 50.056 60.2395 50.4613C60.6448 50.8667 60.8475 51.3396 60.8475 51.88C60.8475 52.4204 60.6448 52.8933 60.2395 53.2987C59.8342 53.704 59.3613 53.9067 58.8208 53.9067ZM82.1512 61H87.2179V53.9067H83.1646C82.6241 53.9067 82.1512 53.704 81.7459 53.2987C81.3406 52.8933 81.1379 52.4204 81.1379 51.88C81.1379 51.3396 81.3406 50.8667 81.7459 50.4613C82.1512 50.056 82.6241 49.8533 83.1646 49.8533H87.2179V42.76H82.1512C79.6517 42.76 77.4899 43.6382 75.6659 45.3947C73.9095 47.1511 73.0312 49.3129 73.0312 51.88C73.0312 54.3796 73.9095 56.5413 75.6659 58.3653C77.4899 60.1218 79.6517 61 82.1512 61ZM103.449 61H111.556V51.88V38.7067C110.542 40.4631 109.09 41.5778 107.198 42.0507C105.374 42.5236 103.449 42.76 101.422 42.76C98.6526 42.76 96.2544 43.6382 94.2277 45.3947C92.2686 47.1511 91.2891 49.3129 91.2891 51.88C91.2891 54.92 92.2686 57.2169 94.2277 58.7707C96.2544 60.2569 98.6526 61 101.422 61C102.166 61 102.841 60.9662 103.449 60.8987V61ZM101.422 53.9067C100.882 53.9067 100.409 53.704 100.004 53.2987C99.5984 52.8933 99.3957 52.4204 99.3957 51.88C99.3957 51.3396 99.5984 50.8667 100.004 50.4613C100.409 50.056 100.882 49.8533 101.422 49.8533C101.963 49.8533 102.436 50.056 102.841 50.4613C103.246 50.8667 103.449 51.3396 103.449 51.88C103.449 52.4204 103.246 52.8933 102.841 53.2987C102.436 53.704 101.963 53.9067 101.422 53.9067ZM123.739 52.8933V44.7867H131.846V42.8613H123.739V34.6533L115.633 36.68V42.8613H113.606V44.7867H115.633V52.8933C115.633 55.3929 116.41 57.3858 117.963 58.872C119.585 60.2907 121.409 61 123.435 61C124.989 61 126.509 60.5947 127.995 59.784C129.482 58.9058 130.765 57.6222 131.846 55.9333C130.765 56.4062 129.651 56.6427 128.502 56.6427C127.286 56.6427 126.171 56.3387 125.158 55.7307C124.212 55.1227 123.739 54.1769 123.739 52.8933Z" fill="#F00000"/>
<mask id="mask0_3_71" style="mask-type:alpha" maskUnits="userSpaceOnUse" x="75" y="31" width="56" height="43">
<path fill-rule="evenodd" clip-rule="evenodd" d="M127.729 31.2026C126.907 31.5118 126.465 31.8127 125.745 32.5548C124.344 33.9997 124.082 34.8383 124.133 37.7044C124.215 42.2025 124.194 42.6459 123.868 43.5172C123.275 45.1028 121.696 47.0554 119.981 48.3263C119.091 48.9856 117.619 49.7054 116.8 49.8816C116.225 50.0052 115.994 49.9977 114.992 49.8232C113.501 49.5636 110.462 49.483 108.405 49.6487C107.524 49.7195 105.016 49.9703 102.83 50.2058C100.645 50.4414 97.949 50.6833 96.8397 50.7435C91.5254 51.0314 87.4582 50.131 85.3 48.1887C84.9527 47.8761 84.2326 46.9719 83.643 46.1079C82.5135 44.453 81.6659 43.4735 81.2232 43.3117C81.0383 43.2441 80.8092 43.2517 80.5497 43.334C80.0685 43.4867 79.7274 44.1371 79.4377 45.4548C79.2464 46.3249 79.2424 46.3313 78.6812 46.6553C77.9938 47.0523 77.2218 47.8263 76.8903 48.451C76.7549 48.7063 76.5683 49.2637 76.476 49.6896C76.3327 50.3501 76.2328 50.5412 75.7968 50.9894C74.8874 51.924 74.7765 52.5753 75.3618 53.5448C75.745 54.1792 76.5086 54.6219 77.9833 55.0644C79.3851 55.485 80.4493 56.0795 81.572 57.069C82.4609 57.8522 83.4745 59.172 83.8643 60.0534L84.1866 60.7827L84.0532 63.2676C83.8275 67.4702 83.4004 70.5873 82.9005 71.6801C82.7821 71.9387 82.4539 72.3666 82.171 72.6309C81.7272 73.0456 81.6568 73.1722 81.6568 73.5554V73.9995L82.9908 73.9688L84.3247 73.938L84.9846 73.0103C86.3394 71.1057 87.2613 69.2143 87.7922 67.2509C87.9589 66.6343 88.1247 66.1015 88.1607 66.0669C88.2741 65.9579 89.356 67.4612 89.8196 68.372C90.2913 69.2982 90.7419 70.6161 91.0089 71.8492L91.171 72.5981L90.6712 73.0584C90.3812 73.3256 90.1716 73.618 90.1716 73.7556C90.1716 73.9866 90.2087 73.9926 91.6382 73.9926H93.1049L93.3312 73.6379C94.1402 72.3697 94.3208 68.9556 93.7399 65.9141C93.447 64.3805 93.4298 64.2034 93.5663 64.1223C93.6368 64.0804 94.6005 64.0315 95.7079 64.0136C97.9525 63.9774 98.6045 63.9102 102.812 63.2825C104.426 63.0417 105.808 62.8678 105.884 62.8959C106.041 62.9535 107.618 65.5977 108.337 67.0078C108.809 67.9348 108.81 67.9361 108.748 68.9177C108.708 69.5416 108.558 70.3132 108.337 71.0329C107.921 72.3845 107.857 72.5125 107.348 73.0245C107.078 73.297 106.967 73.5012 106.993 73.6794C107.029 73.9283 107.072 73.9392 108.116 73.969L109.202 74L109.94 73.0413C111.728 70.7228 112.501 69.1964 112.922 67.1545C113.085 66.3648 113.218 65.5913 113.218 65.4355C113.218 65.2798 113.258 65.1524 113.306 65.1524C113.354 65.1524 113.861 65.5451 114.432 66.0252C116.242 67.5468 116.348 67.8983 115.821 70.6293C115.481 72.3939 115.432 72.5464 115.075 72.9288C114.866 73.1541 114.694 73.4266 114.694 73.5345C114.694 73.9094 114.934 73.9926 116.015 73.9926C117.029 73.9926 117.07 73.9828 117.285 73.6925C118.059 72.6441 119.031 70.6127 119.456 69.1574C119.88 67.7067 119.88 67.0515 119.455 65.3707C119.035 63.7049 118.957 62.2554 119.207 60.7518C119.4 59.5885 119.385 56.7161 119.179 55.3995C118.965 54.0377 119.049 53.8368 120.118 53.1473C123.301 51.0936 125.908 48.0577 126.866 45.2894C127.21 44.294 127.225 44.1785 127.232 42.3973C127.236 41.3768 127.218 39.8544 127.193 39.014C127.116 36.5149 127.387 35.9599 129.195 34.9077C129.709 34.6088 130.282 34.217 130.469 34.0368C131.335 33.2044 131.108 31.7438 130.03 31.215C129.455 30.9331 128.46 30.9278 127.729 31.2026ZM79.1395 49.7553C79.1995 50.1424 78.9603 50.3097 78.3469 50.3097C77.9482 50.3097 77.7704 50.2616 77.722 50.1405C77.6463 49.9507 78.0659 49.4617 78.4211 49.326C78.7134 49.2142 79.0904 49.4395 79.1395 49.7553Z" fill="#ABABAB"/>
</mask>
<g mask="url(#mask0_3_71)">
<path d="M0 51.88V65.0533V72.1467V86.3333L8.10667 84.3067V74.1733V61.1013C8.78222 61.0338 9.45778 61 10.1333 61C12.9031 61 15.2676 60.1218 17.2267 58.3653C19.2533 56.5413 20.2667 54.3796 20.2667 51.88C20.2667 48.84 19.2533 46.5769 17.2267 45.0907C15.2676 43.5369 12.9031 42.76 10.1333 42.76C8.10667 42.76 6.14756 42.5236 4.256 42.0507C2.432 41.5778 1.01333 40.4631 0 38.7067V51.88ZM10.1333 49.8533C10.6738 49.8533 11.1467 50.056 11.552 50.4613C11.9573 50.8667 12.16 51.3396 12.16 51.88C12.16 52.4204 11.9573 52.8933 11.552 53.2987C11.1467 53.704 10.6738 53.9067 10.1333 53.9067C9.59289 53.9067 9.12 53.704 8.71467 53.2987C8.30933 52.8933 8.10667 52.4204 8.10667 51.88C8.10667 51.3396 8.30933 50.8667 8.71467 50.4613C9.12 50.056 9.59289 49.8533 10.1333 49.8533ZM34.4771 61C41.2326 61 44.6104 57.96 44.6104 51.88C44.6104 49.3129 43.5971 47.1511 41.5704 45.3947C39.6113 43.6382 37.2469 42.76 34.4771 42.76C31.7073 42.76 29.3091 43.6382 27.2824 45.3947C25.3233 47.1511 24.3438 49.3129 24.3438 51.88C24.3438 54.92 25.3233 57.2169 27.2824 58.7707C29.3091 60.2569 31.7073 61 34.4771 61ZM34.4771 53.9067C33.9366 53.9067 33.4637 53.704 33.0584 53.2987C32.6531 52.8933 32.4504 52.4204 32.4504 51.88C32.4504 51.3396 32.6531 50.8667 33.0584 50.4613C33.4637 50.056 33.9366 49.8533 34.4771 49.8533C35.0175 49.8533 35.4904 50.056 35.8957 50.4613C36.3011 50.8667 36.5037 51.3396 36.5037 51.88C36.5037 52.4204 36.3011 52.8933 35.8957 53.2987C35.4904 53.704 35.0175 53.9067 34.4771 53.9067ZM58.8208 61C65.5764 61 68.9542 57.96 68.9542 51.88V38.7067V4.25333L60.8475 6.28V42.6587C60.1719 42.7262 59.4964 42.76 58.8208 42.76C56.0511 42.76 53.6528 43.6382 51.6262 45.3947C49.6671 47.1511 48.6875 49.3129 48.6875 51.88C48.6875 54.92 49.6671 57.2169 51.6262 58.7707C53.6528 60.2569 56.0511 61 58.8208 61ZM58.8208 53.9067C58.2804 53.9067 57.8075 53.704 57.4022 53.2987C56.9968 52.8933 56.7942 52.4204 56.7942 51.88C56.7942 51.3396 56.9968 50.8667 57.4022 50.4613C57.8075 50.056 58.2804 49.8533 58.8208 49.8533C59.3613 49.8533 59.8342 50.056 60.2395 50.4613C60.6448 50.8667 60.8475 51.3396 60.8475 51.88C60.8475 52.4204 60.6448 52.8933 60.2395 53.2987C59.8342 53.704 59.3613 53.9067 58.8208 53.9067ZM82.1512 61H87.2179V53.9067H83.1646C82.6241 53.9067 82.1512 53.704 81.7459 53.2987C81.3406 52.8933 81.1379 52.4204 81.1379 51.88C81.1379 51.3396 81.3406 50.8667 81.7459 50.4613C82.1512 50.056 82.6241 49.8533 83.1646 49.8533H87.2179V42.76H82.1512C79.6517 42.76 77.4899 43.6382 75.6659 45.3947C73.9095 47.1511 73.0312 49.3129 73.0312 51.88C73.0312 54.3796 73.9095 56.5413 75.6659 58.3653C77.4899 60.1218 79.6517 61 82.1512 61ZM103.449 61H111.556V51.88V38.7067C110.542 40.4631 109.09 41.5778 107.198 42.0507C105.374 42.5236 103.449 42.76 101.422 42.76C98.6526 42.76 96.2544 43.6382 94.2277 45.3947C92.2686 47.1511 91.2891 49.3129 91.2891 51.88C91.2891 54.92 92.2686 57.2169 94.2277 58.7707C96.2544 60.2569 98.6526 61 101.422 61C102.166 61 102.841 60.9662 103.449 60.8987V61ZM101.422 53.9067C100.882 53.9067 100.409 53.704 100.004 53.2987C99.5984 52.8933 99.3957 52.4204 99.3957 51.88C99.3957 51.3396 99.5984 50.8667 100.004 50.4613C100.409 50.056 100.882 49.8533 101.422 49.8533C101.963 49.8533 102.436 50.056 102.841 50.4613C103.246 50.8667 103.449 51.3396 103.449 51.88C103.449 52.4204 103.246 52.8933 102.841 53.2987C102.436 53.704 101.963 53.9067 101.422 53.9067ZM123.739 52.8933V44.7867H131.846V42.8613H123.739V34.6533L115.633 36.68V42.8613H113.606V44.7867H115.633V52.8933C115.633 55.3929 116.41 57.3858 117.963 58.872C119.585 60.2907 121.409 61 123.435 61C124.989 61 126.509 60.5947 127.995 59.784C129.482 58.9058 130.765 57.6222 131.846 55.9333C130.765 56.4062 129.651 56.6427 128.502 56.6427C127.286 56.6427 126.171 56.3387 125.158 55.7307C124.212 55.1227 123.739 54.1769 123.739 52.8933Z" fill="#900000"/>
</g>
</svg>
